<svg xmlns="http://www.w3.org/2000/svg" xmlns:xlink="http://www.w3.org/1999/xlink" width="500" zoomAndPan="magnify" viewBox="0 0 375 374.999991" height="500" preserveAspectRatio="xMidYMid meet" version="1.0"><defs><clipPath id="1d9581f318"><path d="M 6.824219 171.140625 L 168.488281 171.140625 L 168.488281 262.261719 L 6.824219 262.261719 Z M 6.824219 171.140625 " clip-rule="nonzero"/></clipPath><clipPath id="65066ab873"><path d="M 205.828125 171.140625 L 368.152344 171.140625 L 368.152344 262.261719 L 205.828125 262.261719 Z M 205.828125 171.140625 " clip-rule="nonzero"/></clipPath><clipPath id="2cba531227"><path d="M 133 56.144531 L 241 56.144531 L 241 218 L 133 218 Z M 133 56.144531 " clip-rule="nonzero"/></clipPath></defs><g clip-path="url(#1d9581f318)"><path fill="#3e3a9d" d="M 119.5625 252.148438 C 115.269531 252.148438 111 251.941406 106.777344 251.503906 C 99.71875 250.761719 92.808594 249.351562 86.164062 247.289062 C 79.53125 245.191406 73.179688 242.386719 67.265625 238.871094 C 61.339844 235.375 55.628906 231.144531 50.289062 226.640625 C 44.992188 222.054688 39.925781 217.160156 35.34375 211.832031 C 33.007812 209.214844 30.800781 206.480469 28.683594 203.695312 L 26.300781 200.386719 C 26.632812 200.128906 26.949219 199.859375 27.285156 199.597656 C 29.347656 198.015625 31.5 196.523438 33.722656 195.140625 C 38.175781 192.382812 42.871094 190.007812 47.746094 188.117188 C 56.039062 184.933594 64.875 183.167969 73.835938 183.167969 C 74.429688 183.167969 75.03125 183.210938 75.628906 183.226562 C 73.90625 179.871094 72.304688 176.304688 70.902344 172.546875 C 70.785156 172.222656 70.683594 171.933594 70.570312 171.625 C 69.429688 171.574219 68.292969 171.492188 67.148438 171.492188 C 59.074219 171.492188 50.957031 172.75 43.257812 175.210938 C 37.347656 177.058594 31.660156 179.546875 26.292969 182.59375 C 23.601562 184.109375 20.984375 185.753906 18.441406 187.535156 C 17.167969 188.425781 15.925781 189.371094 14.691406 190.351562 C 14.074219 190.847656 13.464844 191.347656 12.847656 191.871094 L 11.921875 192.683594 C 11.589844 192.980469 11.34375 193.199219 10.890625 193.636719 L 6.824219 197.574219 L 9.601562 202.664062 C 10.210938 203.777344 10.679688 204.558594 11.21875 205.460938 L 12.820312 208.011719 C 13.890625 209.691406 15.03125 211.308594 16.1875 212.910156 C 18.53125 216.078125 20.96875 219.164062 23.546875 222.128906 C 28.738281 228.023438 34.375 233.542969 40.554688 238.429688 C 46.714844 243.382812 53.324219 247.601562 60.398438 251.351562 C 67.53125 254.988281 75.054688 257.882812 82.8125 259.609375 C 90.550781 261.414062 98.441406 262.222656 106.25 262.261719 C 114.0625 262.222656 121.796875 261.402344 129.332031 259.894531 C 133.101562 259.148438 136.808594 258.175781 140.476562 257.140625 C 144.128906 256.027344 147.738281 254.820312 151.265625 253.425781 C 157.203125 251.078125 162.96875 248.359375 168.417969 245.136719 L 166.765625 244.78125 C 154.0625 248.625 141.128906 251.046875 128.261719 251.875 C 125.355469 252.054688 122.453125 252.148438 119.5625 252.148438 " fill-opacity="1" fill-rule="nonzero"/></g><path fill="#565959" d="M 171.46875 243.296875 C 170.679688 243.558594 169.886719 243.796875 169.097656 244.046875 L 169.714844 244.355469 C 170.296875 244 170.894531 243.667969 171.46875 243.296875 " fill-opacity="1" fill-rule="nonzero"/><path fill="#565959" d="M 75.511719 177.613281 C 74.648438 175.675781 73.851562 173.710938 73.109375 171.722656 C 73.851562 173.710938 74.648438 175.675781 75.511719 177.613281 " fill-opacity="1" fill-rule="nonzero"/><path fill="#6e3bc2" d="M 119.164062 215.566406 C 113.746094 210.777344 108.710938 205.636719 104.238281 200.132812 C 100.640625 195.695312 97.4375 191.011719 94.632812 186.144531 C 93.953125 184.964844 93.277344 183.789062 92.648438 182.59375 C 91.304688 180.003906 90.113281 177.351562 89.023438 174.667969 C 87.511719 170.953125 86.226562 167.160156 85.242188 163.292969 C 83.527344 156.636719 82.484375 149.609375 81.898438 142.65625 C 81.394531 135.667969 81.28125 128.632812 81.808594 121.628906 C 82.015625 118.125 82.390625 114.632812 82.863281 111.171875 L 83.519531 107.148438 C 83.9375 107.199219 84.355469 107.234375 84.777344 107.285156 C 87.351562 107.625 89.933594 108.089844 92.484375 108.679688 C 97.582031 109.875 102.585938 111.511719 107.371094 113.617188 C 116.917969 117.859375 125.609375 124.007812 132.558594 132 C 133.140625 132.65625 133.683594 133.347656 134.238281 134.027344 C 134.667969 132.683594 135.132812 131.308594 135.6875 129.855469 C 136.632812 127.382812 137.722656 124.878906 138.871094 122.371094 C 132.042969 113.679688 123.226562 106.410156 113.332031 101.320312 C 107.847656 98.457031 102.066406 96.199219 96.113281 94.558594 C 93.136719 93.734375 90.121094 93.046875 87.0625 92.507812 C 85.53125 92.238281 83.984375 92.03125 82.417969 91.855469 C 81.632812 91.769531 80.84375 91.6875 80.039062 91.628906 L 78.808594 91.546875 C 78.363281 91.523438 78.035156 91.503906 77.40625 91.492188 L 71.742188 91.402344 L 70.101562 96.964844 C 69.742188 98.183594 69.523438 99.066406 69.265625 100.082031 L 68.589844 103.019531 C 68.160156 104.964844 67.820312 106.910156 67.503906 108.859375 C 66.917969 112.757812 66.457031 116.660156 66.183594 120.578125 C 65.679688 128.410156 65.757812 136.296875 66.667969 144.117188 C 67.519531 151.96875 69.203125 159.621094 71.550781 167.269531 C 71.773438 167.960938 72.03125 168.648438 72.273438 169.335938 C 72.414062 169.734375 72.550781 170.132812 72.691406 170.53125 C 72.835938 170.925781 72.964844 171.328125 73.109375 171.722656 C 73.851562 173.710938 74.648438 175.675781 75.511719 177.613281 C 76.375 179.546875 77.296875 181.449219 78.289062 183.316406 C 78.511719 183.734375 78.773438 184.125 79 184.539062 C 79.230469 184.957031 79.476562 185.359375 79.714844 185.769531 C 80.320312 186.828125 80.898438 187.910156 81.554688 188.9375 C 85.75 195.679688 90.753906 201.824219 96.25 207.367188 C 101.800781 212.855469 107.851562 217.738281 114.246094 221.992188 C 117.4375 224.128906 120.75 226.0625 124.078125 227.917969 C 127.445312 229.710938 130.855469 231.40625 134.335938 232.910156 C 141.292969 235.917969 148.445312 238.441406 155.792969 240.015625 C 142.410156 233.320312 130.046875 225.121094 119.164062 215.566406 " fill-opacity="1" fill-rule="nonzero"/><path fill="#565959" d="M 169.714844 244.355469 L 169.097656 244.046875 C 168.320312 244.292969 167.542969 244.546875 166.765625 244.78125 L 168.417969 245.136719 C 168.851562 244.878906 169.285156 244.617188 169.714844 244.355469 " fill-opacity="1" fill-rule="nonzero"/><g clip-path="url(#65066ab873)"><path fill="#3e3a9d" d="M 299.070312 183.226562 C 299.675781 183.210938 300.28125 183.167969 300.878906 183.167969 C 309.878906 183.167969 318.746094 184.929688 327.074219 188.117188 C 331.964844 190.007812 336.679688 192.382812 341.152344 195.136719 C 343.378906 196.523438 345.542969 198.015625 347.609375 199.597656 C 347.949219 199.855469 348.269531 200.125 348.601562 200.386719 L 346.207031 203.691406 C 344.082031 206.476562 341.867188 209.210938 339.523438 211.832031 C 334.921875 217.160156 329.835938 222.054688 324.515625 226.640625 C 319.160156 231.140625 313.421875 235.375 307.476562 238.867188 C 301.535156 242.386719 295.164062 245.1875 288.503906 247.285156 C 281.835938 249.351562 274.894531 250.761719 267.808594 251.5 C 263.570312 251.941406 259.285156 252.144531 254.972656 252.144531 C 252.070312 252.144531 249.160156 252.054688 246.242188 251.875 C 233.324219 251.046875 220.339844 248.625 207.585938 244.777344 L 205.925781 245.132812 C 211.398438 248.355469 217.1875 251.078125 223.148438 253.425781 C 226.6875 254.820312 230.3125 256.027344 233.976562 257.136719 C 237.660156 258.175781 241.382812 259.148438 245.167969 259.890625 C 252.730469 261.398438 260.496094 262.21875 268.339844 262.257812 C 276.179688 262.21875 284.097656 261.410156 291.867188 259.609375 C 299.65625 257.882812 307.210938 254.988281 314.371094 251.351562 C 321.46875 247.597656 328.105469 243.378906 334.289062 238.429688 C 340.496094 233.542969 346.152344 228.019531 351.363281 222.128906 C 353.953125 219.164062 356.398438 216.074219 358.753906 212.90625 C 359.914062 211.304688 361.058594 209.691406 362.136719 208.011719 L 363.742188 205.460938 C 364.28125 204.558594 364.753906 203.777344 365.363281 202.660156 L 368.152344 197.570312 L 364.070312 193.632812 C 363.613281 193.195312 363.367188 192.976562 363.035156 192.679688 L 362.105469 191.871094 C 361.488281 191.34375 360.871094 190.84375 360.253906 190.347656 C 359.015625 189.367188 357.769531 188.425781 356.492188 187.53125 C 353.9375 185.75 351.308594 184.109375 348.609375 182.589844 C 343.21875 179.546875 337.507812 177.058594 331.578125 175.210938 C 323.847656 172.746094 315.699219 171.492188 307.589844 171.492188 C 306.441406 171.492188 305.296875 171.570312 304.148438 171.625 C 304.035156 171.933594 303.933594 172.222656 303.8125 172.546875 C 302.40625 176.304688 300.796875 179.867188 299.070312 183.226562 " fill-opacity="1" fill-rule="nonzero"/></g><path fill="#565959" d="M 202.867188 243.296875 C 203.441406 243.664062 204.042969 243.996094 204.625 244.351562 L 205.246094 244.042969 C 204.453125 243.792969 203.65625 243.558594 202.867188 243.296875 " fill-opacity="1" fill-rule="nonzero"/><path fill="#6e3bc2" d="M 308.5625 120.578125 C 308.285156 116.660156 307.824219 112.753906 307.234375 108.859375 C 306.917969 106.910156 306.578125 104.960938 306.144531 103.015625 L 305.46875 100.082031 C 305.210938 99.0625 304.988281 98.179688 304.628906 96.960938 L 302.980469 91.402344 L 297.296875 91.492188 C 296.664062 91.5 296.335938 91.519531 295.886719 91.542969 L 294.652344 91.625 C 293.84375 91.6875 293.054688 91.765625 292.265625 91.851562 C 290.691406 92.027344 289.140625 92.238281 287.601562 92.503906 C 284.53125 93.042969 281.503906 93.730469 278.515625 94.558594 C 272.539062 96.195312 266.734375 98.453125 261.226562 101.320312 C 251.226562 106.445312 242.320312 113.777344 235.441406 122.550781 C 235.527344 122.730469 235.613281 122.910156 235.695312 123.089844 C 236.851562 125.648438 237.757812 127.800781 238.546875 129.863281 C 239.085938 131.28125 239.578125 132.765625 240.046875 134.257812 C 240.664062 133.496094 241.273438 132.730469 241.925781 132 C 248.90625 124.007812 257.628906 117.855469 267.214844 113.613281 C 272.019531 111.507812 277.039062 109.871094 282.160156 108.675781 C 284.71875 108.085938 287.308594 107.621094 289.898438 107.285156 C 290.320312 107.230469 290.738281 107.195312 291.160156 107.144531 L 291.816406 111.167969 C 292.292969 114.632812 292.667969 118.125 292.875 121.625 C 293.40625 128.628906 293.289062 135.667969 292.789062 142.652344 C 292.199219 149.605469 291.148438 156.632812 289.425781 163.292969 C 288.441406 167.160156 287.148438 170.949219 285.632812 174.667969 C 284.539062 177.351562 283.34375 180 281.992188 182.589844 C 281.363281 183.785156 280.683594 184.964844 280 186.140625 C 277.183594 191.007812 273.96875 195.691406 270.355469 200.128906 C 265.867188 205.636719 260.816406 210.773438 255.375 215.566406 C 244.449219 225.117188 232.039062 233.316406 218.605469 240.015625 C 225.980469 238.4375 233.160156 235.917969 240.144531 232.910156 C 243.640625 231.402344 247.058594 229.707031 250.441406 227.914062 C 253.78125 226.058594 257.105469 224.128906 260.3125 221.992188 C 266.730469 217.734375 272.804688 212.855469 278.378906 207.363281 C 283.894531 201.820312 288.917969 195.675781 293.132812 188.9375 C 293.789062 187.90625 294.367188 186.828125 294.976562 185.765625 C 295.214844 185.355469 295.464844 184.953125 295.695312 184.539062 C 295.921875 184.125 296.183594 183.730469 296.410156 183.3125 C 298.398438 179.582031 300.121094 175.699219 301.605469 171.722656 C 301.753906 171.324219 301.882812 170.925781 302.027344 170.527344 C 302.171875 170.132812 302.304688 169.730469 302.445312 169.332031 C 302.691406 168.644531 302.949219 167.960938 303.175781 167.265625 C 305.527344 159.617188 307.222656 151.964844 308.078125 144.113281 C 308.992188 136.292969 309.066406 128.410156 308.5625 120.578125 " fill-opacity="1" fill-rule="nonzero"/><path fill="#565959" d="M 205.246094 244.042969 L 204.625 244.351562 C 205.058594 244.617188 205.492188 244.875 205.925781 245.132812 L 207.585938 244.777344 C 206.804688 244.542969 206.027344 244.289062 205.246094 244.042969 " fill-opacity="1" fill-rule="nonzero"/><g clip-path="url(#2cba531227)"><path fill="#d7d24b" d="M 240.28125 148.796875 L 240.09375 145.773438 C 240.054688 145.101562 239.945312 144.351562 239.839844 143.609375 L 239.695312 142.558594 C 239.515625 141.503906 239.292969 140.421875 239.027344 139.308594 C 238.75 138.132812 238.421875 136.925781 238.039062 135.664062 C 237.523438 133.96875 236.957031 132.300781 236.34375 130.703125 C 235.574219 128.6875 234.6875 126.574219 233.550781 124.058594 C 233.269531 123.441406 232.976562 122.839844 232.691406 122.222656 C 232.324219 121.433594 231.964844 120.632812 231.582031 119.855469 C 228.589844 113.820312 225.035156 107.625 220.058594 99.773438 C 216.316406 93.972656 212.046875 87.816406 207.019531 80.957031 C 201.992188 74.257812 197.480469 68.535156 192.820312 62.949219 L 187.136719 56.144531 L 181.433594 62.953125 C 176.898438 68.371094 172.378906 74.09375 167.222656 80.960938 C 162.46875 87.410156 158.199219 93.570312 154.171875 99.773438 C 149.25 107.535156 145.695312 113.730469 142.648438 119.847656 C 142.285156 120.578125 141.96875 121.3125 141.621094 122.042969 C 141.433594 122.445312 141.246094 122.84375 141.058594 123.246094 C 139.914062 125.742188 138.828125 128.234375 137.886719 130.695312 C 136.929688 133.214844 136.203125 135.46875 135.621094 137.632812 C 135.492188 138.121094 135.371094 138.601562 135.257812 139.078125 C 134.976562 140.257812 134.722656 141.425781 134.527344 142.597656 L 134.390625 143.609375 C 134.28125 144.351562 134.171875 145.101562 134.132812 145.773438 L 133.945312 148.820312 C 133.890625 149.503906 133.886719 150.160156 133.886719 150.820312 L 133.871094 152.433594 C 133.863281 153.210938 133.851562 153.984375 133.910156 154.757812 C 134.011719 158.382812 134.425781 162.15625 135.214844 166.695312 C 136.699219 174.445312 139.25 181.921875 142.78125 188.886719 C 146.214844 195.707031 150.5 202.144531 155.53125 208.03125 C 157.964844 210.855469 160.605469 213.628906 163.375 216.273438 C 163.890625 216.746094 164.449219 217.253906 165.039062 217.777344 C 157.945312 207.683594 152.578125 197.15625 149.050781 186.382812 C 147.949219 183.09375 147.027344 179.582031 146.308594 175.960938 C 145.535156 172.078125 145.070312 168.628906 144.878906 165.417969 C 144.617188 161.3125 144.613281 157.972656 144.859375 154.914062 L 144.960938 153.878906 C 145.078125 152.5 145.199219 151.117188 145.375 149.746094 L 145.757812 147.191406 C 145.835938 146.648438 145.941406 146.179688 146.050781 145.71875 C 146.109375 145.449219 146.171875 145.179688 146.226562 144.894531 C 146.683594 143.117188 147.277344 141.292969 148.058594 139.238281 C 149.585938 135.238281 151.683594 130.886719 154.472656 125.941406 C 157.875 119.9375 161.789062 113.753906 166.109375 107.554688 C 170.058594 101.796875 174.425781 95.808594 179.085938 89.765625 C 181.410156 86.710938 183.800781 83.644531 186.21875 80.621094 L 187.136719 79.472656 L 188.054688 80.621094 C 188.574219 81.265625 189.082031 81.917969 189.589844 82.574219 L 191.609375 85.152344 C 192.820312 86.691406 194.03125 88.230469 195.203125 89.777344 C 200.21875 96.304688 204.460938 102.132812 208.171875 107.578125 C 212.546875 113.859375 216.460938 120.042969 219.796875 125.949219 C 223.949219 133.304688 226.640625 139.480469 228.023438 144.824219 C 228.09375 145.179688 228.15625 145.453125 228.21875 145.71875 C 228.324219 146.183594 228.429688 146.652344 228.511719 147.195312 L 228.890625 149.726562 C 229.121094 151.460938 229.28125 153.191406 229.40625 154.925781 C 229.652344 157.972656 229.648438 161.308594 229.386719 165.417969 C 228.902344 172.402344 227.5 179.453125 225.21875 186.378906 C 221.707031 197.109375 216.367188 207.609375 209.308594 217.683594 C 209.867188 217.183594 210.394531 216.703125 210.890625 216.25 C 213.628906 213.636719 216.265625 210.859375 218.714844 208.019531 C 223.726562 202.148438 228.011719 195.710938 231.449219 188.886719 C 234.984375 181.914062 237.53125 174.441406 239.019531 166.671875 C 239.804688 162.15625 240.214844 158.378906 240.3125 154.816406 C 240.390625 153.058594 240.378906 151.210938 240.28125 148.796875 " fill-opacity="1" fill-rule="nonzero"/></g></svg>