<svg xmlns="http://www.w3.org/2000/svg" xmlns:xlink="http://www.w3.org/1999/xlink" width="800" zoomAndPan="magnify" viewBox="0 0 600 149.999998" height="200" preserveAspectRatio="xMidYMid meet" version="1.0"><defs><g/><clipPath id="696baac83f"><path d="M 5.03125 80.660156 L 81.773438 80.660156 L 81.773438 123.574219 L 5.03125 123.574219 Z M 5.03125 80.660156 " clip-rule="nonzero"/></clipPath><clipPath id="95abc1fe1d"><path d="M 99.496094 80.660156 L 176.554688 80.660156 L 176.554688 123.574219 L 99.496094 123.574219 Z M 99.496094 80.660156 " clip-rule="nonzero"/></clipPath><clipPath id="90f5a44064"><path d="M 65 26.074219 L 116 26.074219 L 116 103 L 65 103 Z M 65 26.074219 " clip-rule="nonzero"/></clipPath></defs><g clip-path="url(#696baac83f)"><path fill="#3e3a9d" d="M 58.550781 119.117188 C 56.511719 119.117188 54.484375 119.019531 52.480469 118.808594 C 49.128906 118.457031 45.847656 117.789062 42.695312 116.808594 C 39.542969 115.8125 36.53125 114.484375 33.722656 112.8125 C 30.910156 111.15625 28.199219 109.144531 25.664062 107.007812 C 23.148438 104.832031 20.746094 102.507812 18.570312 99.980469 C 17.460938 98.734375 16.414062 97.4375 15.410156 96.117188 L 14.277344 94.546875 C 14.433594 94.421875 14.585938 94.292969 14.746094 94.171875 C 15.722656 93.421875 16.746094 92.710938 17.800781 92.054688 C 19.914062 90.746094 22.140625 89.617188 24.457031 88.722656 C 28.394531 87.210938 32.585938 86.371094 36.839844 86.371094 C 37.125 86.371094 37.410156 86.390625 37.695312 86.398438 C 36.875 84.804688 36.113281 83.113281 35.449219 81.328125 C 35.394531 81.175781 35.347656 81.039062 35.292969 80.890625 C 34.75 80.867188 34.210938 80.828125 33.667969 80.828125 C 29.835938 80.828125 25.980469 81.425781 22.324219 82.59375 C 19.519531 83.472656 16.820312 84.652344 14.273438 86.097656 C 12.996094 86.816406 11.753906 87.597656 10.546875 88.445312 C 9.941406 88.867188 9.351562 89.316406 8.765625 89.78125 C 8.472656 90.015625 8.183594 90.253906 7.890625 90.503906 L 7.453125 90.886719 C 7.292969 91.03125 7.175781 91.132812 6.960938 91.339844 L 5.03125 93.210938 L 6.351562 95.625 C 6.636719 96.15625 6.863281 96.527344 7.117188 96.953125 L 7.878906 98.164062 C 8.386719 98.960938 8.925781 99.730469 9.476562 100.488281 C 10.589844 101.992188 11.746094 103.460938 12.96875 104.867188 C 15.433594 107.664062 18.109375 110.285156 21.042969 112.605469 C 23.96875 114.957031 27.105469 116.957031 30.460938 118.738281 C 33.847656 120.464844 37.421875 121.839844 41.101562 122.660156 C 44.777344 123.515625 48.523438 123.898438 52.230469 123.917969 C 55.9375 123.898438 59.609375 123.507812 63.183594 122.792969 C 64.976562 122.441406 66.734375 121.980469 68.476562 121.484375 C 70.210938 120.957031 71.921875 120.386719 73.597656 119.722656 C 76.414062 118.609375 79.152344 117.316406 81.742188 115.789062 L 80.957031 115.617188 C 74.925781 117.445312 68.785156 118.59375 62.675781 118.988281 C 61.296875 119.070312 59.921875 119.117188 58.550781 119.117188 " fill-opacity="1" fill-rule="nonzero"/></g><path fill="#565959" d="M 83.1875 114.914062 C 82.8125 115.039062 82.4375 115.152344 82.0625 115.269531 L 82.355469 115.417969 C 82.632812 115.246094 82.917969 115.089844 83.1875 114.914062 " fill-opacity="1" fill-rule="nonzero"/><path fill="#565959" d="M 37.636719 83.734375 C 37.226562 82.816406 36.847656 81.882812 36.496094 80.9375 C 36.847656 81.882812 37.226562 82.816406 37.636719 83.734375 " fill-opacity="1" fill-rule="nonzero"/><path fill="#6e3bc2" d="M 58.359375 101.75 C 55.785156 99.476562 53.398438 97.039062 51.273438 94.425781 C 49.566406 92.316406 48.046875 90.09375 46.714844 87.785156 C 46.390625 87.226562 46.070312 86.667969 45.773438 86.097656 C 45.132812 84.871094 44.566406 83.613281 44.050781 82.335938 C 43.335938 80.574219 42.722656 78.773438 42.257812 76.9375 C 41.441406 73.777344 40.945312 70.441406 40.667969 67.140625 C 40.429688 63.824219 40.375 60.484375 40.628906 57.160156 C 40.722656 55.496094 40.902344 53.839844 41.128906 52.195312 L 41.4375 50.285156 C 41.636719 50.308594 41.835938 50.324219 42.035156 50.351562 C 43.257812 50.511719 44.484375 50.730469 45.695312 51.011719 C 48.113281 51.578125 50.488281 52.355469 52.761719 53.355469 C 57.292969 55.371094 61.417969 58.289062 64.71875 62.082031 C 64.992188 62.394531 65.25 62.722656 65.515625 63.042969 C 65.71875 62.40625 65.941406 61.753906 66.203125 61.0625 C 66.652344 59.890625 67.167969 58.699219 67.714844 57.511719 C 64.472656 53.382812 60.289062 49.933594 55.589844 47.519531 C 52.988281 46.160156 50.242188 45.085938 47.417969 44.308594 C 46.003906 43.917969 44.574219 43.589844 43.121094 43.335938 C 42.394531 43.207031 41.660156 43.109375 40.914062 43.023438 C 40.542969 42.984375 40.167969 42.945312 39.785156 42.917969 L 39.203125 42.878906 C 38.992188 42.867188 38.835938 42.859375 38.535156 42.851562 L 35.847656 42.808594 L 35.070312 45.449219 C 34.898438 46.027344 34.792969 46.449219 34.671875 46.929688 L 34.351562 48.324219 C 34.148438 49.246094 33.984375 50.171875 33.835938 51.097656 C 33.558594 52.949219 33.339844 54.800781 33.207031 56.660156 C 32.96875 60.378906 33.007812 64.121094 33.4375 67.832031 C 33.84375 71.5625 34.644531 75.191406 35.757812 78.824219 C 35.863281 79.152344 35.984375 79.476562 36.101562 79.804688 C 36.167969 79.996094 36.230469 80.183594 36.300781 80.371094 C 36.367188 80.558594 36.429688 80.75 36.496094 80.9375 C 36.847656 81.882812 37.226562 82.816406 37.636719 83.734375 C 38.046875 84.652344 38.484375 85.554688 38.957031 86.441406 C 39.0625 86.640625 39.183594 86.828125 39.292969 87.023438 C 39.402344 87.21875 39.519531 87.410156 39.632812 87.605469 C 39.921875 88.109375 40.195312 88.621094 40.503906 89.109375 C 42.496094 92.308594 44.875 95.226562 47.480469 97.859375 C 50.117188 100.464844 52.988281 102.78125 56.023438 104.800781 C 57.539062 105.816406 59.113281 106.734375 60.691406 107.613281 C 62.289062 108.464844 63.910156 109.269531 65.5625 109.984375 C 68.863281 111.414062 72.257812 112.609375 75.746094 113.359375 C 69.394531 110.179688 63.527344 106.285156 58.359375 101.75 " fill-opacity="1" fill-rule="nonzero"/><path fill="#565959" d="M 82.355469 115.417969 L 82.0625 115.269531 C 81.695312 115.386719 81.324219 115.507812 80.957031 115.617188 L 81.742188 115.789062 C 81.945312 115.664062 82.152344 115.542969 82.355469 115.417969 " fill-opacity="1" fill-rule="nonzero"/><g clip-path="url(#95abc1fe1d)"><path fill="#3e3a9d" d="M 143.761719 86.398438 C 144.046875 86.390625 144.335938 86.371094 144.621094 86.371094 C 148.890625 86.371094 153.101562 87.207031 157.054688 88.71875 C 159.375 89.617188 161.613281 90.746094 163.738281 92.054688 C 164.792969 92.710938 165.820312 93.417969 166.804688 94.171875 C 166.964844 94.292969 167.117188 94.421875 167.273438 94.546875 L 166.136719 96.113281 C 165.128906 97.4375 164.078125 98.734375 162.964844 99.980469 C 160.78125 102.507812 158.367188 104.832031 155.839844 107.007812 C 153.296875 109.144531 150.574219 111.152344 147.75 112.8125 C 144.933594 114.480469 141.90625 115.8125 138.746094 116.808594 C 135.578125 117.789062 132.285156 118.457031 128.921875 118.808594 C 126.910156 119.015625 124.875 119.113281 122.828125 119.113281 C 121.449219 119.113281 120.066406 119.070312 118.683594 118.988281 C 112.550781 118.59375 106.386719 117.441406 100.332031 115.617188 L 99.546875 115.785156 C 102.144531 117.316406 104.890625 118.609375 107.71875 119.722656 C 109.402344 120.382812 111.121094 120.957031 112.859375 121.484375 C 114.609375 121.976562 116.375 122.4375 118.171875 122.792969 C 121.761719 123.507812 125.449219 123.898438 129.171875 123.917969 C 132.894531 123.898438 136.65625 123.511719 140.339844 122.660156 C 144.039062 121.839844 147.625 120.464844 151.023438 118.738281 C 154.394531 116.957031 157.542969 114.953125 160.480469 112.605469 C 163.425781 110.285156 166.113281 107.664062 168.585938 104.867188 C 169.8125 103.457031 170.976562 101.992188 172.09375 100.488281 C 172.644531 99.730469 173.1875 98.960938 173.699219 98.164062 L 174.460938 96.953125 C 174.71875 96.523438 174.941406 96.152344 175.230469 95.625 L 176.554688 93.210938 L 174.617188 91.339844 C 174.398438 91.132812 174.28125 91.027344 174.125 90.886719 L 173.683594 90.503906 C 173.390625 90.253906 173.097656 90.015625 172.804688 89.78125 C 172.21875 89.316406 171.625 88.867188 171.019531 88.441406 C 169.804688 87.597656 168.558594 86.816406 167.277344 86.097656 C 164.71875 84.652344 162.007812 83.472656 159.191406 82.59375 C 155.523438 81.425781 151.652344 80.828125 147.804688 80.828125 C 147.257812 80.828125 146.714844 80.867188 146.171875 80.890625 C 146.117188 81.039062 146.070312 81.175781 146.011719 81.328125 C 145.34375 83.113281 144.582031 84.804688 143.761719 86.398438 " fill-opacity="1" fill-rule="nonzero"/></g><path fill="#565959" d="M 98.09375 114.914062 C 98.367188 115.089844 98.652344 115.246094 98.929688 115.417969 L 99.222656 115.269531 C 98.847656 115.148438 98.46875 115.039062 98.09375 114.914062 " fill-opacity="1" fill-rule="nonzero"/><path fill="#6e3bc2" d="M 148.265625 56.660156 C 148.136719 54.800781 147.914062 52.945312 147.636719 51.097656 C 147.488281 50.171875 147.324219 49.246094 147.121094 48.324219 L 146.796875 46.929688 C 146.675781 46.449219 146.570312 46.027344 146.398438 45.449219 L 145.617188 42.808594 L 142.917969 42.851562 C 142.617188 42.855469 142.460938 42.867188 142.25 42.878906 L 141.664062 42.917969 C 141.28125 42.945312 140.90625 42.984375 140.53125 43.023438 C 139.785156 43.109375 139.046875 43.207031 138.316406 43.332031 C 136.859375 43.589844 135.421875 43.914062 134.003906 44.308594 C 131.167969 45.085938 128.410156 46.15625 125.796875 47.519531 C 121.050781 49.953125 116.820312 53.429688 113.558594 57.597656 C 113.597656 57.683594 113.636719 57.765625 113.675781 57.851562 C 114.226562 59.066406 114.65625 60.089844 115.03125 61.066406 C 115.285156 61.742188 115.519531 62.445312 115.742188 63.15625 C 116.035156 62.792969 116.324219 62.429688 116.632812 62.082031 C 119.949219 58.289062 124.089844 55.367188 128.640625 53.355469 C 130.917969 52.355469 133.304688 51.578125 135.734375 51.011719 C 136.949219 50.730469 138.179688 50.511719 139.40625 50.351562 C 139.605469 50.324219 139.804688 50.308594 140.003906 50.285156 L 140.316406 52.195312 C 140.542969 53.839844 140.722656 55.496094 140.820312 57.15625 C 141.070312 60.480469 141.015625 63.824219 140.777344 67.140625 C 140.5 70.4375 140 73.777344 139.183594 76.9375 C 138.714844 78.773438 138.101562 80.570312 137.382812 82.335938 C 136.863281 83.609375 136.296875 84.867188 135.65625 86.097656 C 135.355469 86.664062 135.03125 87.222656 134.707031 87.785156 C 133.371094 90.09375 131.84375 92.316406 130.128906 94.421875 C 128 97.035156 125.601562 99.476562 123.019531 101.75 C 117.832031 106.285156 111.941406 110.175781 105.5625 113.355469 C 109.066406 112.609375 112.472656 111.410156 115.789062 109.984375 C 117.449219 109.269531 119.070312 108.464844 120.675781 107.613281 C 122.261719 106.730469 123.839844 105.816406 125.363281 104.800781 C 128.410156 102.78125 131.292969 100.464844 133.9375 97.855469 C 136.558594 95.226562 138.941406 92.308594 140.941406 89.109375 C 141.253906 88.621094 141.527344 88.109375 141.820312 87.605469 C 141.929688 87.410156 142.050781 87.21875 142.160156 87.023438 C 142.265625 86.824219 142.390625 86.640625 142.496094 86.441406 C 143.441406 84.667969 144.257812 82.824219 144.964844 80.9375 C 145.035156 80.75 145.097656 80.558594 145.164062 80.371094 C 145.234375 80.183594 145.296875 79.992188 145.363281 79.804688 C 145.480469 79.476562 145.601562 79.152344 145.710938 78.824219 C 146.828125 75.191406 147.632812 71.558594 148.035156 67.832031 C 148.46875 64.121094 148.507812 60.378906 148.265625 56.660156 " fill-opacity="1" fill-rule="nonzero"/><path fill="#565959" d="M 99.222656 115.269531 L 98.929688 115.417969 C 99.132812 115.542969 99.339844 115.664062 99.546875 115.785156 L 100.332031 115.617188 C 99.960938 115.507812 99.59375 115.386719 99.222656 115.269531 " fill-opacity="1" fill-rule="nonzero"/><g clip-path="url(#90f5a44064)"><path fill="#d7d24b" d="M 115.855469 70.054688 L 115.765625 68.621094 C 115.746094 68.300781 115.695312 67.945312 115.644531 67.59375 L 115.574219 67.09375 C 115.492188 66.59375 115.382812 66.078125 115.257812 65.550781 C 115.125 64.992188 114.972656 64.417969 114.789062 63.820312 C 114.546875 63.015625 114.273438 62.226562 113.984375 61.464844 C 113.621094 60.507812 113.199219 59.507812 112.660156 58.3125 C 112.527344 58.019531 112.386719 57.734375 112.25 57.441406 C 112.078125 57.066406 111.90625 56.683594 111.722656 56.316406 C 110.304688 53.453125 108.617188 50.511719 106.253906 46.785156 C 104.476562 44.03125 102.453125 41.105469 100.0625 37.851562 C 97.679688 34.671875 95.535156 31.957031 93.324219 29.304688 L 90.625 26.074219 L 87.917969 29.304688 C 85.765625 31.878906 83.621094 34.59375 81.171875 37.851562 C 78.917969 40.914062 76.886719 43.839844 74.976562 46.785156 C 72.640625 50.46875 70.953125 53.410156 69.507812 56.3125 C 69.335938 56.660156 69.183594 57.007812 69.019531 57.355469 C 68.929688 57.546875 68.839844 57.738281 68.753906 57.925781 C 68.210938 59.109375 67.691406 60.292969 67.246094 61.464844 C 66.792969 62.65625 66.449219 63.726562 66.171875 64.757812 C 66.109375 64.988281 66.050781 65.214844 66 65.441406 C 65.863281 66.003906 65.746094 66.558594 65.652344 67.113281 L 65.585938 67.59375 C 65.535156 67.945312 65.484375 68.300781 65.464844 68.621094 L 65.375 70.066406 C 65.351562 70.390625 65.347656 70.703125 65.347656 71.015625 L 65.339844 71.78125 C 65.335938 72.152344 65.332031 72.519531 65.359375 72.886719 C 65.40625 74.605469 65.605469 76.398438 65.980469 78.550781 C 66.683594 82.230469 67.894531 85.78125 69.570312 89.085938 C 71.199219 92.324219 73.234375 95.378906 75.621094 98.175781 C 76.777344 99.515625 78.03125 100.832031 79.347656 102.085938 C 79.589844 102.3125 79.855469 102.550781 80.136719 102.800781 C 76.769531 98.007812 74.222656 93.011719 72.546875 87.898438 C 72.023438 86.335938 71.585938 84.667969 71.246094 82.949219 C 70.878906 81.109375 70.65625 79.46875 70.566406 77.945312 C 70.441406 75.996094 70.441406 74.410156 70.558594 72.960938 L 70.605469 72.46875 C 70.660156 71.8125 70.71875 71.15625 70.800781 70.507812 L 70.984375 69.292969 C 71.019531 69.035156 71.070312 68.8125 71.121094 68.59375 C 71.152344 68.464844 71.179688 68.339844 71.207031 68.203125 C 71.421875 67.359375 71.703125 66.492188 72.074219 65.519531 C 72.800781 63.621094 73.796875 61.554688 75.121094 59.207031 C 76.734375 56.355469 78.59375 53.421875 80.644531 50.476562 C 82.519531 47.742188 84.59375 44.902344 86.804688 42.035156 C 87.910156 40.582031 89.042969 39.128906 90.191406 37.691406 L 90.625 37.148438 L 91.0625 37.691406 C 91.308594 38 91.550781 38.308594 91.789062 38.621094 L 92.75 39.84375 C 93.324219 40.574219 93.898438 41.304688 94.457031 42.039062 C 96.835938 45.136719 98.847656 47.902344 100.609375 50.488281 C 102.6875 53.46875 104.546875 56.40625 106.128906 59.207031 C 108.101562 62.703125 109.378906 65.632812 110.035156 68.171875 C 110.066406 68.339844 110.097656 68.46875 110.128906 68.59375 C 110.175781 68.8125 110.226562 69.039062 110.265625 69.292969 L 110.445312 70.496094 C 110.554688 71.320312 110.632812 72.140625 110.691406 72.964844 C 110.808594 74.410156 110.804688 75.996094 110.683594 77.945312 C 110.453125 81.261719 109.785156 84.609375 108.703125 87.894531 C 107.035156 92.992188 104.5 97.972656 101.152344 102.753906 C 101.417969 102.519531 101.667969 102.289062 101.902344 102.078125 C 103.203125 100.835938 104.453125 99.515625 105.617188 98.167969 C 107.996094 95.382812 110.03125 92.324219 111.660156 89.085938 C 113.339844 85.777344 114.546875 82.230469 115.253906 78.542969 C 115.628906 76.398438 115.824219 74.605469 115.871094 72.914062 C 115.90625 72.078125 115.902344 71.199219 115.855469 70.054688 " fill-opacity="1" fill-rule="nonzero"/></g><g fill="#6e3bc2" fill-opacity="1"><g transform="translate(191.782092, 88.73392)"><g><path d="M 18.984375 -32.625 C 14.703125 -32.625 11.03125 -31.21875 7.96875 -28.40625 C 4.613281 -25.300781 2.9375 -21.253906 2.9375 -16.265625 C 2.9375 -10.484375 4.914062 -6.023438 8.875 -2.890625 C 11.757812 -0.609375 15.078125 0.53125 18.828125 0.53125 C 23.035156 0.53125 26.65625 -0.894531 29.6875 -3.75 C 33.070312 -6.914062 34.765625 -11.015625 34.765625 -16.046875 C 34.765625 -21.929688 32.710938 -26.40625 28.609375 -29.46875 C 25.828125 -31.570312 22.617188 -32.625 18.984375 -32.625 Z M 18.984375 -0.96875 C 13.816406 -0.96875 10.5 -3.726562 9.03125 -9.25 C 8.539062 -11.207031 8.296875 -13.472656 8.296875 -16.046875 C 8.296875 -24.523438 10.859375 -29.445312 15.984375 -30.8125 C 16.878906 -31.019531 17.828125 -31.125 18.828125 -31.125 C 25.847656 -31.050781 29.378906 -26.097656 29.421875 -16.265625 C 29.421875 -8.484375 27.257812 -3.648438 22.9375 -1.765625 C 21.726562 -1.234375 20.410156 -0.96875 18.984375 -0.96875 Z M 18.984375 -0.96875 "/></g></g></g><g fill="#6e3bc2" fill-opacity="1"><g transform="translate(235.006255, 88.73392)"><g><path d="M 25.5625 0 L 25.828125 -10.703125 L 24.765625 -10.703125 L 23.859375 -7.109375 C 22.992188 -3.828125 21.566406 -1.957031 19.578125 -1.5 C 19.148438 -1.425781 18.738281 -1.390625 18.34375 -1.390625 L 11.015625 -1.390625 L 11.015625 -30.703125 L 15.515625 -30.703125 L 15.515625 -32.09375 L 2.140625 -32.09375 L 2.140625 -30.703125 L 6.421875 -30.703125 L 6.421875 -1.390625 L 2.140625 -1.390625 L 2.140625 0 Z M 25.5625 0 "/></g></g></g><g fill="#6e3bc2" fill-opacity="1"><g transform="translate(266.895886, 88.73392)"><g><path d="M 17.4375 0 L 17.4375 -1.390625 L 11.015625 -1.390625 L 11.015625 -15.78125 L 22.03125 -15.78125 L 22.03125 -17.328125 L 11.015625 -17.328125 L 11.015625 -30.703125 L 19.578125 -30.703125 C 22.140625 -30.703125 23.972656 -28.972656 25.078125 -25.515625 C 25.148438 -25.296875 25.207031 -25.113281 25.25 -24.96875 L 26 -22.46875 L 27.0625 -22.46875 L 26.796875 -32.09375 L 2.140625 -32.09375 L 2.140625 -30.703125 L 6.421875 -30.703125 L 6.421875 -1.390625 L 2.140625 -1.390625 L 2.140625 0 Z M 17.4375 0 "/></g></g></g><g fill="#6e3bc2" fill-opacity="1"><g transform="translate(300.015206, 88.73392)"><g><path d="M 32.78125 0 C 32.78125 -0.78125 32.492188 -1.226562 31.921875 -1.34375 C 31.742188 -1.375 31.566406 -1.390625 31.390625 -1.390625 L 29.578125 -1.390625 L 17.328125 -32.09375 L 15.34375 -32.09375 L 3.375 -1.390625 L 0 -1.390625 L 0 0 L 9.515625 0 C 9.515625 -0.78125 9.234375 -1.226562 8.671875 -1.34375 C 8.484375 -1.375 8.300781 -1.390625 8.125 -1.390625 L 5.515625 -1.390625 L 9.515625 -11.765625 L 20.703125 -11.765625 L 24.703125 -1.390625 L 21.234375 -1.390625 L 21.234375 0 Z M 20.109375 -13.3125 L 10.109375 -13.3125 L 15.078125 -26.265625 Z M 20.109375 -13.3125 "/></g></g></g><g fill="#6e3bc2" fill-opacity="1"><g transform="translate(338.320608, 88.73392)"><g><path d="M 24.28125 -30.703125 L 28.828125 -30.703125 L 28.828125 -6.734375 L 8.5 -32.09375 L 1.0625 -32.09375 L 1.0625 -30.703125 L 5.34375 -30.703125 L 5.34375 -1.390625 L 1.0625 -1.390625 L 1.0625 0 L 12.03125 0 C 12.03125 -0.78125 11.742188 -1.226562 11.171875 -1.34375 C 10.992188 -1.375 10.816406 -1.390625 10.640625 -1.390625 L 7.484375 -1.390625 L 7.484375 -26.15625 L 28.5 0.265625 L 30.96875 -0.265625 L 30.96875 -30.703125 L 35.25 -30.703125 L 35.25 -32.09375 L 24.28125 -32.09375 Z M 24.28125 -30.703125 "/></g></g></g><g fill="#6e3bc2" fill-opacity="1"><g transform="translate(379.620039, 88.73392)"><g><path d="M 32.78125 0 C 32.78125 -0.78125 32.492188 -1.226562 31.921875 -1.34375 C 31.742188 -1.375 31.566406 -1.390625 31.390625 -1.390625 L 29.578125 -1.390625 L 17.328125 -32.09375 L 15.34375 -32.09375 L 3.375 -1.390625 L 0 -1.390625 L 0 0 L 9.515625 0 C 9.515625 -0.78125 9.234375 -1.226562 8.671875 -1.34375 C 8.484375 -1.375 8.300781 -1.390625 8.125 -1.390625 L 5.515625 -1.390625 L 9.515625 -11.765625 L 20.703125 -11.765625 L 24.703125 -1.390625 L 21.234375 -1.390625 L 21.234375 0 Z M 20.109375 -13.3125 L 10.109375 -13.3125 L 15.078125 -26.265625 Z M 20.109375 -13.3125 "/></g></g></g><g fill="#6e3bc2" fill-opacity="1"><g transform="translate(417.925442, 88.73392)"><g><path d="M 25.5625 0 L 25.828125 -10.703125 L 24.765625 -10.703125 L 23.859375 -7.109375 C 22.992188 -3.828125 21.566406 -1.957031 19.578125 -1.5 C 19.148438 -1.425781 18.738281 -1.390625 18.34375 -1.390625 L 11.015625 -1.390625 L 11.015625 -30.703125 L 15.515625 -30.703125 L 15.515625 -32.09375 L 2.140625 -32.09375 L 2.140625 -30.703125 L 6.421875 -30.703125 L 6.421875 -1.390625 L 2.140625 -1.390625 L 2.140625 0 Z M 25.5625 0 "/></g></g></g><g fill="#6e3bc2" fill-opacity="1"><g transform="translate(449.815073, 88.73392)"><g><path d="M 21.546875 0 C 21.546875 -0.78125 21.265625 -1.226562 20.703125 -1.34375 C 20.523438 -1.375 20.34375 -1.390625 20.15625 -1.390625 L 17.28125 -1.390625 L 17.28125 -13.3125 L 25.34375 -29.203125 C 26.164062 -30.160156 27.128906 -30.660156 28.234375 -30.703125 C 29.023438 -30.703125 29.472656 -30.984375 29.578125 -31.546875 C 29.609375 -31.734375 29.625 -31.914062 29.625 -32.09375 L 20.109375 -32.09375 L 20.109375 -30.703125 L 24.390625 -30.703125 L 16.265625 -15.140625 L 7.75 -30.703125 L 11.8125 -30.703125 L 11.8125 -32.09375 L -0.265625 -32.09375 L -0.265625 -30.703125 L 2.671875 -30.703125 L 12.734375 -12.78125 L 12.734375 -1.390625 L 8.453125 -1.390625 L 8.453125 0 Z M 21.546875 0 "/></g></g></g><g fill="#6e3bc2" fill-opacity="1"><g transform="translate(484.966054, 88.73392)"><g><path d="M 27.703125 0 L 27.8125 -11.078125 L 26.640625 -11.078125 L 25.515625 -5.9375 C 24.765625 -2.9375 23.015625 -1.421875 20.265625 -1.390625 L 7.0625 -1.390625 L 27.546875 -30.96875 L 27.546875 -32.09375 L 3.75 -32.09375 L 3.265625 -22.40625 L 4.328125 -22.40625 L 6.421875 -27.21875 C 7.484375 -29.5 8.925781 -30.660156 10.75 -30.703125 L 22.40625 -30.703125 L 1.34375 -1.0625 L 1.34375 0 Z M 27.703125 0 "/></g></g></g><g fill="#6e3bc2" fill-opacity="1"><g transform="translate(519.903175, 88.73392)"><g><path d="M 27.0625 -22.46875 L 26.796875 -32.09375 L 2.140625 -32.09375 L 2.140625 -30.703125 L 6.421875 -30.703125 L 6.421875 -1.390625 L 2.140625 -1.390625 L 2.140625 0 L 26.796875 0 L 27.0625 -9.625 L 26 -9.625 L 25.25 -7.109375 C 24.351562 -4.078125 23.03125 -2.257812 21.28125 -1.65625 C 20.75 -1.476562 20.179688 -1.390625 19.578125 -1.390625 L 11.015625 -1.390625 L 11.015625 -15.78125 L 22.03125 -15.78125 L 22.03125 -17.328125 L 11.015625 -17.328125 L 11.015625 -30.703125 L 19.578125 -30.703125 C 22.140625 -30.703125 23.972656 -28.972656 25.078125 -25.515625 C 25.148438 -25.296875 25.207031 -25.113281 25.25 -24.96875 L 26 -22.46875 Z M 27.0625 -22.46875 "/></g></g></g><g fill="#6e3bc2" fill-opacity="1"><g transform="translate(555.161086, 88.73392)"><g><path d="M 15.25 0 L 15.25 -1.390625 L 11.015625 -1.390625 L 11.015625 -14.703125 L 16.09375 -14.703125 L 24.65625 0 L 32.734375 0 C 32.734375 -0.78125 32.519531 -1.226562 32.09375 -1.34375 C 31.914062 -1.375 31.703125 -1.390625 31.453125 -1.390625 L 29.421875 -1.390625 L 20.796875 -15.1875 C 24.191406 -16.007812 26.507812 -17.773438 27.75 -20.484375 C 28.21875 -21.554688 28.453125 -22.644531 28.453125 -23.75 C 28.453125 -26.414062 27.289062 -28.550781 24.96875 -30.15625 C 23.082031 -31.445312 20.75 -32.09375 17.96875 -32.09375 L 2.140625 -32.09375 L 2.140625 -30.703125 L 6.421875 -30.703125 L 6.421875 -1.390625 L 2.140625 -1.390625 L 2.140625 0 Z M 16.359375 -30.703125 C 19.429688 -30.703125 21.554688 -29.453125 22.734375 -26.953125 C 23.191406 -25.921875 23.421875 -24.832031 23.421875 -23.6875 C 23.421875 -21.125 22.53125 -19.128906 20.75 -17.703125 C 19.539062 -16.742188 18.132812 -16.265625 16.53125 -16.265625 L 11.015625 -16.265625 L 11.015625 -30.703125 Z M 16.359375 -30.703125 "/></g></g></g><g fill="#3e3a9d" fill-opacity="1"><g transform="translate(232.760052, 112.742792)"><g><path d="M 15.265625 0 C 15.265625 -0.363281 15.128906 -0.570312 14.859375 -0.625 C 14.785156 -0.632812 14.707031 -0.640625 14.625 -0.640625 L 13.765625 -0.640625 L 8.0625 -14.9375 L 7.140625 -14.9375 L 1.5625 -0.640625 L 0 -0.640625 L 0 0 L 4.4375 0 C 4.4375 -0.363281 4.300781 -0.570312 4.03125 -0.625 C 3.945312 -0.632812 3.863281 -0.640625 3.78125 -0.640625 L 2.5625 -0.640625 L 4.4375 -5.484375 L 9.640625 -5.484375 L 11.5 -0.640625 L 9.890625 -0.640625 L 9.890625 0 Z M 9.359375 -6.203125 L 4.703125 -6.203125 L 7.015625 -12.234375 Z M 9.359375 -6.203125 "/></g></g></g><g fill="#3e3a9d" fill-opacity="1"><g transform="translate(251.023481, 112.742792)"><g><path d="M 7.09375 0 C 7.09375 -0.363281 6.960938 -0.570312 6.703125 -0.625 C 6.617188 -0.632812 6.535156 -0.640625 6.453125 -0.640625 L 5.125 -0.640625 L 5.125 -14.296875 L 7.09375 -14.296875 L 7.09375 -14.9375 L 1 -14.9375 L 1 -14.296875 L 2.984375 -14.296875 L 2.984375 -0.640625 L 1 -0.640625 L 1 0 Z M 7.09375 0 "/></g></g></g><g fill="#3e3a9d" fill-opacity="1"><g transform="translate(262.119853, 112.742792)"><g/></g></g><g fill="#3e3a9d" fill-opacity="1"><g transform="translate(269.981097, 112.742792)"><g><path d="M 8.125 0 L 8.125 -0.640625 L 5.125 -0.640625 L 5.125 -7.34375 L 10.265625 -7.34375 L 10.265625 -8.0625 L 5.125 -8.0625 L 5.125 -14.296875 L 9.109375 -14.296875 C 10.304688 -14.296875 11.160156 -13.488281 11.671875 -11.875 C 11.710938 -11.78125 11.738281 -11.695312 11.75 -11.625 L 12.109375 -10.453125 L 12.59375 -10.453125 L 12.46875 -14.9375 L 1 -14.9375 L 1 -14.296875 L 2.984375 -14.296875 L 2.984375 -0.640625 L 1 -0.640625 L 1 0 Z M 8.125 0 "/></g></g></g><g fill="#3e3a9d" fill-opacity="1"><g transform="translate(285.83062, 112.742792)"><g><path d="M 7.09375 0 L 7.09375 -0.640625 L 5.125 -0.640625 L 5.125 -6.84375 L 7.5 -6.84375 L 11.484375 0 L 15.234375 0 C 15.234375 -0.363281 15.132812 -0.570312 14.9375 -0.625 C 14.851562 -0.632812 14.753906 -0.640625 14.640625 -0.640625 L 13.703125 -0.640625 L 9.6875 -7.078125 C 11.257812 -7.453125 12.335938 -8.269531 12.921875 -9.53125 C 13.140625 -10.03125 13.25 -10.539062 13.25 -11.0625 C 13.25 -12.300781 12.707031 -13.296875 11.625 -14.046875 C 10.75 -14.640625 9.664062 -14.9375 8.375 -14.9375 L 1 -14.9375 L 1 -14.296875 L 2.984375 -14.296875 L 2.984375 -0.640625 L 1 -0.640625 L 1 0 Z M 7.625 -14.296875 C 9.050781 -14.296875 10.035156 -13.710938 10.578125 -12.546875 C 10.796875 -12.066406 10.90625 -11.5625 10.90625 -11.03125 C 10.90625 -9.832031 10.488281 -8.90625 9.65625 -8.25 C 9.09375 -7.800781 8.4375 -7.578125 7.6875 -7.578125 L 5.125 -7.578125 L 5.125 -14.296875 Z M 7.625 -14.296875 "/></g></g></g><g fill="#3e3a9d" fill-opacity="1"><g transform="translate(304.069162, 112.742792)"><g><path d="M 15.265625 0 C 15.265625 -0.363281 15.128906 -0.570312 14.859375 -0.625 C 14.785156 -0.632812 14.707031 -0.640625 14.625 -0.640625 L 13.765625 -0.640625 L 8.0625 -14.9375 L 7.140625 -14.9375 L 1.5625 -0.640625 L 0 -0.640625 L 0 0 L 4.4375 0 C 4.4375 -0.363281 4.300781 -0.570312 4.03125 -0.625 C 3.945312 -0.632812 3.863281 -0.640625 3.78125 -0.640625 L 2.5625 -0.640625 L 4.4375 -5.484375 L 9.640625 -5.484375 L 11.5 -0.640625 L 9.890625 -0.640625 L 9.890625 0 Z M 9.359375 -6.203125 L 4.703125 -6.203125 L 7.015625 -12.234375 Z M 9.359375 -6.203125 "/></g></g></g><g fill="#3e3a9d" fill-opacity="1"><g transform="translate(322.332589, 112.742792)"><g><path d="M 10.328125 -6.71875 L 10.328125 -6.078125 L 12.578125 -6.078125 L 12.578125 -2.1875 C 11.742188 -1.195312 10.628906 -0.640625 9.234375 -0.515625 C 9.109375 -0.503906 8.976562 -0.5 8.84375 -0.5 C 5.539062 -0.53125 3.878906 -2.851562 3.859375 -7.46875 C 3.859375 -11.414062 5.054688 -13.707031 7.453125 -14.34375 C 7.859375 -14.445312 8.296875 -14.5 8.765625 -14.5 C 10.472656 -14.5 11.707031 -14.023438 12.46875 -13.078125 C 12.96875 -12.429688 13.421875 -11.414062 13.828125 -10.03125 L 14.46875 -10.03125 L 14.34375 -14.859375 L 12.171875 -14.421875 C 11.128906 -14.929688 10.019531 -15.1875 8.84375 -15.1875 C 6.851562 -15.1875 5.140625 -14.53125 3.703125 -13.21875 C 2.148438 -11.78125 1.375 -9.898438 1.375 -7.578125 C 1.375 -4.921875 2.316406 -2.84375 4.203125 -1.34375 C 5.585938 -0.28125 7.132812 0.25 8.84375 0.25 C 10.082031 0.25 11.210938 -0.0234375 12.234375 -0.578125 C 12.359375 -0.640625 12.460938 -0.703125 12.546875 -0.765625 L 14.671875 0 L 14.671875 -6.078125 L 16.53125 -6.078125 L 16.53125 -6.71875 Z M 10.328125 -6.71875 "/></g></g></g><g fill="#3e3a9d" fill-opacity="1"><g transform="translate(342.611751, 112.742792)"><g><path d="M 7.09375 0 L 7.09375 -0.640625 L 5.125 -0.640625 L 5.125 -6.84375 L 7.5 -6.84375 L 11.484375 0 L 15.234375 0 C 15.234375 -0.363281 15.132812 -0.570312 14.9375 -0.625 C 14.851562 -0.632812 14.753906 -0.640625 14.640625 -0.640625 L 13.703125 -0.640625 L 9.6875 -7.078125 C 11.257812 -7.453125 12.335938 -8.269531 12.921875 -9.53125 C 13.140625 -10.03125 13.25 -10.539062 13.25 -11.0625 C 13.25 -12.300781 12.707031 -13.296875 11.625 -14.046875 C 10.75 -14.640625 9.664062 -14.9375 8.375 -14.9375 L 1 -14.9375 L 1 -14.296875 L 2.984375 -14.296875 L 2.984375 -0.640625 L 1 -0.640625 L 1 0 Z M 7.625 -14.296875 C 9.050781 -14.296875 10.035156 -13.710938 10.578125 -12.546875 C 10.796875 -12.066406 10.90625 -11.5625 10.90625 -11.03125 C 10.90625 -9.832031 10.488281 -8.90625 9.65625 -8.25 C 9.09375 -7.800781 8.4375 -7.578125 7.6875 -7.578125 L 5.125 -7.578125 L 5.125 -14.296875 Z M 7.625 -14.296875 "/></g></g></g><g fill="#3e3a9d" fill-opacity="1"><g transform="translate(360.850299, 112.742792)"><g><path d="M 15.265625 0 C 15.265625 -0.363281 15.128906 -0.570312 14.859375 -0.625 C 14.785156 -0.632812 14.707031 -0.640625 14.625 -0.640625 L 13.765625 -0.640625 L 8.0625 -14.9375 L 7.140625 -14.9375 L 1.5625 -0.640625 L 0 -0.640625 L 0 0 L 4.4375 0 C 4.4375 -0.363281 4.300781 -0.570312 4.03125 -0.625 C 3.945312 -0.632812 3.863281 -0.640625 3.78125 -0.640625 L 2.5625 -0.640625 L 4.4375 -5.484375 L 9.640625 -5.484375 L 11.5 -0.640625 L 9.890625 -0.640625 L 9.890625 0 Z M 9.359375 -6.203125 L 4.703125 -6.203125 L 7.015625 -12.234375 Z M 9.359375 -6.203125 "/></g></g></g><g fill="#3e3a9d" fill-opacity="1"><g transform="translate(379.113733, 112.742792)"><g><path d="M 11.3125 -14.296875 L 13.421875 -14.296875 L 13.421875 -3.140625 L 3.953125 -14.9375 L 0.5 -14.9375 L 0.5 -14.296875 L 2.484375 -14.296875 L 2.484375 -0.640625 L 0.5 -0.640625 L 0.5 0 L 5.609375 0 C 5.609375 -0.363281 5.472656 -0.570312 5.203125 -0.625 C 5.117188 -0.632812 5.035156 -0.640625 4.953125 -0.640625 L 3.484375 -0.640625 L 3.484375 -12.171875 L 13.265625 0.125 L 14.421875 -0.125 L 14.421875 -14.296875 L 16.40625 -14.296875 L 16.40625 -14.9375 L 11.3125 -14.9375 Z M 11.3125 -14.296875 "/></g></g></g><g fill="#3e3a9d" fill-opacity="1"><g transform="translate(398.770761, 112.742792)"><g><path d="M 13.640625 -1.140625 C 13.640625 -0.441406 13.742188 -0.046875 13.953125 0.046875 C 14.066406 0.0976562 14.222656 0.125 14.421875 0.125 L 14.421875 -4.578125 L 13.828125 -4.578125 C 12.972656 -1.835938 11.273438 -0.460938 8.734375 -0.453125 C 6.578125 -0.453125 5.109375 -1.535156 4.328125 -3.703125 C 3.953125 -4.765625 3.765625 -6.019531 3.765625 -7.46875 C 3.765625 -10.570312 4.617188 -12.679688 6.328125 -13.796875 C 7.078125 -14.265625 7.90625 -14.5 8.8125 -14.5 C 10.882812 -14.5 12.390625 -13.519531 13.328125 -11.5625 C 13.492188 -11.207031 13.632812 -10.847656 13.75 -10.484375 L 14.34375 -10.484375 L 14.265625 -15.0625 C 13.898438 -15.0625 13.675781 -14.945312 13.59375 -14.71875 C 13.539062 -14.519531 13.515625 -14.195312 13.515625 -13.75 C 13.035156 -14.226562 12.21875 -14.617188 11.0625 -14.921875 C 10.289062 -15.097656 9.507812 -15.1875 8.71875 -15.1875 C 6.09375 -15.1875 4.082031 -14.21875 2.6875 -12.28125 C 1.726562 -10.894531 1.25 -9.304688 1.25 -7.515625 C 1.25 -5.347656 1.921875 -3.523438 3.265625 -2.046875 C 4.691406 -0.515625 6.550781 0.25 8.84375 0.25 C 10.519531 0.226562 12.117188 -0.234375 13.640625 -1.140625 Z M 13.640625 -1.140625 "/></g></g></g><g fill="#3e3a9d" fill-opacity="1"><g transform="translate(417.307936, 112.742792)"><g><path d="M 12.59375 -10.453125 L 12.46875 -14.9375 L 1 -14.9375 L 1 -14.296875 L 2.984375 -14.296875 L 2.984375 -0.640625 L 1 -0.640625 L 1 0 L 12.46875 0 L 12.59375 -4.484375 L 12.109375 -4.484375 L 11.75 -3.3125 C 11.332031 -1.90625 10.71875 -1.054688 9.90625 -0.765625 C 9.65625 -0.679688 9.390625 -0.640625 9.109375 -0.640625 L 5.125 -0.640625 L 5.125 -7.34375 L 10.265625 -7.34375 L 10.265625 -8.0625 L 5.125 -8.0625 L 5.125 -14.296875 L 9.109375 -14.296875 C 10.304688 -14.296875 11.160156 -13.488281 11.671875 -11.875 C 11.710938 -11.78125 11.738281 -11.695312 11.75 -11.625 L 12.109375 -10.453125 Z M 12.59375 -10.453125 "/></g></g></g><g fill="#3e3a9d" fill-opacity="1"><g transform="translate(434.15289, 112.742792)"><g/></g></g><g fill="#3e3a9d" fill-opacity="1"><g transform="translate(442.014137, 112.742792)"><g><path d="M 14.515625 0 L 19.453125 -14.296875 L 20.6875 -14.296875 L 20.6875 -14.9375 L 16.65625 -14.9375 L 16.65625 -14.296875 L 18.65625 -14.296875 L 14.75 -2.546875 L 10.734375 -14.296875 L 12.75 -14.296875 L 12.75 -14.9375 L 8.46875 -14.9375 L 10.15625 -10.15625 L 7.546875 -2.59375 L 3.34375 -14.296875 L 5.359375 -14.296875 L 5.359375 -14.9375 L -0.125 -14.9375 L -0.125 -14.296875 L 1.34375 -14.296875 L 5.921875 -1.5 C 6.253906 -0.550781 6.554688 -0.0234375 6.828125 0.078125 C 6.921875 0.109375 7.019531 0.125 7.125 0.125 L 7.328125 0.125 L 10.5625 -9.015625 L 13.21875 -1.5 C 13.519531 -0.644531 13.765625 -0.171875 13.953125 -0.078125 C 14.046875 -0.0234375 14.164062 0 14.3125 0 Z M 14.515625 0 "/></g></g></g><g fill="#3e3a9d" fill-opacity="1"><g transform="translate(465.702622, 112.742792)"><g><path d="M 7.09375 0 C 7.09375 -0.363281 6.960938 -0.570312 6.703125 -0.625 C 6.617188 -0.632812 6.535156 -0.640625 6.453125 -0.640625 L 5.125 -0.640625 L 5.125 -14.296875 L 7.09375 -14.296875 L 7.09375 -14.9375 L 1 -14.9375 L 1 -14.296875 L 2.984375 -14.296875 L 2.984375 -0.640625 L 1 -0.640625 L 1 0 Z M 7.09375 0 "/></g></g></g><g fill="#3e3a9d" fill-opacity="1"><g transform="translate(476.798986, 112.742792)"><g><path d="M 12.90625 0 L 12.953125 -5.15625 L 12.40625 -5.15625 L 11.875 -2.765625 C 11.53125 -1.367188 10.71875 -0.660156 9.4375 -0.640625 L 3.28125 -0.640625 L 12.828125 -14.421875 L 12.828125 -14.9375 L 1.75 -14.9375 L 1.515625 -10.4375 L 2.015625 -10.4375 L 2.984375 -12.671875 C 3.484375 -13.734375 4.15625 -14.273438 5 -14.296875 L 10.4375 -14.296875 L 0.625 -0.5 L 0.625 0 Z M 12.90625 0 "/></g></g></g><g fill="#3e3a9d" fill-opacity="1"><g transform="translate(493.494613, 112.742792)"><g><path d="M 15.265625 0 C 15.265625 -0.363281 15.128906 -0.570312 14.859375 -0.625 C 14.785156 -0.632812 14.707031 -0.640625 14.625 -0.640625 L 13.765625 -0.640625 L 8.0625 -14.9375 L 7.140625 -14.9375 L 1.5625 -0.640625 L 0 -0.640625 L 0 0 L 4.4375 0 C 4.4375 -0.363281 4.300781 -0.570312 4.03125 -0.625 C 3.945312 -0.632812 3.863281 -0.640625 3.78125 -0.640625 L 2.5625 -0.640625 L 4.4375 -5.484375 L 9.640625 -5.484375 L 11.5 -0.640625 L 9.890625 -0.640625 L 9.890625 0 Z M 9.359375 -6.203125 L 4.703125 -6.203125 L 7.015625 -12.234375 Z M 9.359375 -6.203125 "/></g></g></g><g fill="#3e3a9d" fill-opacity="1"><g transform="translate(511.758033, 112.742792)"><g><path d="M 7.09375 0 L 7.09375 -0.640625 L 5.125 -0.640625 L 5.125 -6.84375 L 7.5 -6.84375 L 11.484375 0 L 15.234375 0 C 15.234375 -0.363281 15.132812 -0.570312 14.9375 -0.625 C 14.851562 -0.632812 14.753906 -0.640625 14.640625 -0.640625 L 13.703125 -0.640625 L 9.6875 -7.078125 C 11.257812 -7.453125 12.335938 -8.269531 12.921875 -9.53125 C 13.140625 -10.03125 13.25 -10.539062 13.25 -11.0625 C 13.25 -12.300781 12.707031 -13.296875 11.625 -14.046875 C 10.75 -14.640625 9.664062 -14.9375 8.375 -14.9375 L 1 -14.9375 L 1 -14.296875 L 2.984375 -14.296875 L 2.984375 -0.640625 L 1 -0.640625 L 1 0 Z M 7.625 -14.296875 C 9.050781 -14.296875 10.035156 -13.710938 10.578125 -12.546875 C 10.796875 -12.066406 10.90625 -11.5625 10.90625 -11.03125 C 10.90625 -9.832031 10.488281 -8.90625 9.65625 -8.25 C 9.09375 -7.800781 8.4375 -7.578125 7.6875 -7.578125 L 5.125 -7.578125 L 5.125 -14.296875 Z M 7.625 -14.296875 "/></g></g></g><g fill="#3e3a9d" fill-opacity="1"><g transform="translate(529.996568, 112.742792)"><g><path d="M 1 -14.9375 L 1 -14.296875 L 2.984375 -14.296875 L 2.984375 -0.640625 L 1 -0.640625 L 1 0 L 7.875 0 C 10.113281 0 11.953125 -0.695312 13.390625 -2.09375 C 14.828125 -3.46875 15.546875 -5.257812 15.546875 -7.46875 C 15.546875 -10.320312 14.5 -12.414062 12.40625 -13.75 C 11.125 -14.539062 9.632812 -14.9375 7.9375 -14.9375 Z M 7.875 -14.296875 C 10.488281 -14.296875 12.125 -13.097656 12.78125 -10.703125 C 13.03125 -9.828125 13.15625 -8.785156 13.15625 -7.578125 C 13.15625 -3.441406 11.742188 -1.15625 8.921875 -0.71875 C 8.597656 -0.664062 8.269531 -0.640625 7.9375 -0.640625 L 5.125 -0.640625 L 5.125 -14.296875 Z M 7.875 -14.296875 "/></g></g></g></svg>